<?xml version="1.0" encoding="UTF-8" standalone="no" ?>
<!DOCTYPE svg PUBLIC "-//W3C//DTD SVG 1.1//EN" "http://www.w3.org/Graphics/SVG/1.1/DTD/svg11.dtd">
<svg xmlns="http://www.w3.org/2000/svg" xmlns:xlink="http://www.w3.org/1999/xlink" version="1.1" width="374.9887" height="312.97" viewBox="0 0 374.9887 312.97" xml:space="preserve">
<desc>Created with Fabric.js 4.6.0</desc>
<defs>
</defs>
<g transform="matrix(1 0 0 1 187.49 156.49)" id="ISbl0UvwI0Xik18r79I2z"  >
<path style="stroke: none; stroke-width: 1; stroke-dasharray: none; stroke-linecap: butt; stroke-dashoffset: 0; stroke-linejoin: miter; stroke-miterlimit: 4; fill: rgb(81,82,84); fill-rule: nonzero; opacity: 1;" vector-effect="non-scaling-stroke"  transform=" translate(-297.52, -421.38)" d="M 244.5 264.9 L 224.2 304 L 151.79999999999998 304 C 148.39999999999998 304 145.49999999999997 306.5 144.89999999999998 309.8 L 110.19999999999997 499.4 C 109.59999999999998 502.5 110.59999999999998 505.7 112.89999999999998 508 L 135.59999999999997 530.4 C 137.79999999999995 532.6 140.69999999999996 533.8 143.79999999999995 533.6999999999999 L 175.69999999999996 533.5999999999999 L 210.19999999999996 576.3999999999999 C 211.29999999999995 577.7999999999998 213.19999999999996 578.1999999999998 214.59999999999997 577.5999999999999 C 215.99999999999997 577 217.19999999999996 575.4999999999999 217.09999999999997 573.6999999999999 L 217.09999999999997 573.6999999999999 L 214.49999999999997 533.4999999999999 L 459.5 532.9999999999999 C 462.9 532.9999999999999 465.8 530.4999999999999 466.4 527.1999999999999 L 484.9 417.8999999999999 C 485.4 414.69999999999993 484.29999999999995 411.49999999999994 481.79999999999995 409.3999999999999 L 361.79999999999995 306.9999999999999 C 359.49999999999994 304.9999999999999 356.59999999999997 303.9999999999999 353.59999999999997 303.9999999999999 L 252.4 303.9999999999999 L 253.20000000000002 309.1999999999999 L 253.20000000000002 309.2999999999999 L 353.6 309.2999999999999 C 355.40000000000003 309.2999999999999 357 309.8999999999999 358.40000000000003 311.0999999999999 L 478.40000000000003 413.4999999999999 C 479.40000000000003 414.39999999999986 479.90000000000003 415.6999999999999 479.70000000000005 417.0999999999999 L 461.20000000000005 526.3999999999999 C 461.1 527.1999999999998 460.40000000000003 527.7999999999998 459.50000000000006 527.7999999999998 L 211.70000000000005 528.2999999999998 C 210.20000000000005 528.2999999999998 209.00000000000006 529.5999999999998 209.10000000000005 531.0999999999998 L 211.60000000000005 569.6999999999998 L 179 529.4 C 178.5 528.8 177.7 528.4 176.9 528.4 L 143.7 528.5 C 142 528.5 140.5 527.8 139.29999999999998 526.7 L 116.59999999999998 504.30000000000007 C 115.59999999999998 503.30000000000007 115.09999999999998 501.9000000000001 115.39999999999998 500.4000000000001 L 150.09999999999997 310.80000000000007 C 150.29999999999995 309.9000000000001 150.99999999999997 309.30000000000007 151.79999999999995 309.30000000000007 L 221.39999999999995 309.30000000000007 L 197.99999999999994 354.50000000000006 L 216.99999999999994 354.50000000000006 L 212.29999999999995 380.80000000000007 C 212.09999999999997 382.20000000000005 210.49999999999994 383.50000000000006 208.99999999999994 383.50000000000006 L 176.99999999999994 383.50000000000006 C 175.49999999999994 383.50000000000006 174.39999999999995 382.20000000000005 174.69999999999993 380.80000000000007 L 184.29999999999993 328.00000000000006 C 184.69999999999993 325.40000000000003 182.99999999999991 323.50000000000006 180.59999999999994 323.50000000000006 L 165.99999999999994 323.50000000000006 C 163.39999999999995 323.50000000000006 160.99999999999994 325.40000000000003 160.59999999999994 328.00000000000006 L 150.49999999999994 383.6000000000001 C 148.29999999999995 395.2000000000001 156.29999999999995 404.7000000000001 168.09999999999994 404.7000000000001 L 207.89999999999992 404.8000000000001 L 210.29999999999993 404.8000000000001 C 213.39999999999992 404.8000000000001 216.49999999999991 404.2000000000001 219.39999999999992 403.0000000000001 L 244.5 264.9 z M 284.6 323.5 C 282 323.5 279.6 325.4 279.20000000000005 328 L 266.20000000000005 400.1 C 265.70000000000005 402.70000000000005 267.30000000000007 404.70000000000005 269.90000000000003 404.70000000000005 L 285.3 404.70000000000005 C 287.8 404.70000000000005 290.2 402.70000000000005 290.7 400.1 L 293.4 385.1 C 293.5 384.6 294 384.20000000000005 294.5 384.20000000000005 L 331.6 384.20000000000005 C 343.5 384.20000000000005 354.70000000000005 374.70000000000005 356.90000000000003 363.00000000000006 L 360.20000000000005 344.6000000000001 C 362.20000000000005 333.00000000000006 354.30000000000007 323.50000000000006 342.40000000000003 323.50000000000006 L 284.6 323.5 L 284.6 323.5 z M 241.5 325.9 L 220.6 441.59999999999997 L 220.6 441.59999999999997 L 214.79999999999998 473.7 C 212.6 485.3 220.6 494.8 232.39999999999998 494.8 L 241.49999999999997 494.90000000000003 L 245.29999999999998 473.6 L 239.29999999999998 473.6 C 237.79999999999998 473.6 236.7 472.3 236.99999999999997 470.90000000000003 L 242.99999999999997 437.90000000000003 L 242.99999999999997 437.90000000000003 L 249.79999999999998 404.90000000000003 L 259.59999999999997 404.90000000000003 L 241.5 325.9 z M 301.7 343.8 L 331.59999999999997 343.8 C 333.9 343.8 335.4 345.7 334.9 347.90000000000003 L 332.7 360.00000000000006 C 332.3 362.20000000000005 330.2 364.00000000000006 328 364.00000000000006 L 298.1 364.00000000000006 C 297.6 364.00000000000006 297.20000000000005 363.6000000000001 297.3 363.1000000000001 L 300.3 346.50000000000006 L 300.6 344.80000000000007 C 300.7 344.3 301.2 343.8 301.7 343.8 L 301.7 343.8 z M 329 390.2 C 328.8 390.9 328.6 391.5 328.3 392.2 L 324 392.2 L 324 393.3 L 327.8 393.3 C 326.8 395.3 325.40000000000003 397.1 323.6 398.40000000000003 C 323.8 398.6 324.20000000000005 399.00000000000006 324.3 399.3 C 325.3 398.6 326.1 397.8 326.8 396.90000000000003 L 326.8 404.20000000000005 L 327.90000000000003 404.20000000000005 L 327.90000000000003 401.20000000000005 L 334.3 401.20000000000005 L 334.3 402.80000000000007 C 334.3 403.00000000000006 334.2 403.1000000000001 333.90000000000003 403.1000000000001 C 333.6 403.1000000000001 332.70000000000005 403.1000000000001 331.70000000000005 403.1000000000001 C 331.90000000000003 403.4000000000001 332.00000000000006 403.9000000000001 332.1 404.2000000000001 C 333.40000000000003 404.2000000000001 334.20000000000005 404.2000000000001 334.8 404.0000000000001 C 335.3 403.8000000000001 335.40000000000003 403.5000000000001 335.40000000000003 402.8000000000001 L 335.40000000000003 395 L 328.00000000000006 395 C 328.30000000000007 394.4 328.6000000000001 393.8 328.90000000000003 393.2 L 337.1 393.2 L 337.1 392.09999999999997 L 329.3 392.09999999999997 C 329.5 391.59999999999997 329.7 390.99999999999994 329.90000000000003 390.4 L 329 390.2 z M 366.1 390.3 L 366.1 390.3 C 365.20000000000005 390.3 364.5 391.1 364.5 392 C 364.5 392.2 364.6 392.3 364.6 392.5 C 364.40000000000003 392.5 364.20000000000005 392.5 364.1 392.5 L 356.40000000000003 392.5 C 355.90000000000003 392.5 355.3 392.5 354.90000000000003 392.4 L 354.90000000000003 393.79999999999995 C 355.3 393.79999999999995 355.8 393.79999999999995 356.40000000000003 393.79999999999995 L 364.20000000000005 393.79999999999995 C 364.00000000000006 395.29999999999995 363.30000000000007 397.4 362.20000000000005 398.79999999999995 C 360.90000000000003 400.4 359.20000000000005 401.69999999999993 356.20000000000005 402.49999999999994 L 357.20000000000005 403.59999999999997 C 360.00000000000006 402.7 361.80000000000007 401.29999999999995 363.20000000000005 399.49999999999994 C 364.40000000000003 397.8999999999999 365.20000000000005 395.49999999999994 365.50000000000006 393.8999999999999 C 365.50000000000006 393.7999999999999 365.6000000000001 393.7999999999999 365.6000000000001 393.69999999999993 C 365.80000000000007 393.79999999999995 366.00000000000006 393.79999999999995 366.2000000000001 393.79999999999995 C 367.2000000000001 393.79999999999995 367.9000000000001 392.99999999999994 367.9000000000001 392.09999999999997 C 367.9000000000001 391.2 367.1 390.3 366.1 390.3 C 366.1 390.3 366.1 390.3 366.1 390.3 L 366.1 390.3 z M 309.8 390.3 L 309.2 391.1 C 310.2 391.6 311.4 392.3 312 392.90000000000003 L 312.7 392.00000000000006 C 312 391.4 310.8 390.8 309.8 390.3 L 309.8 390.3 z M 314.3 390.8 L 314.3 392.6 C 314.3 393.70000000000005 314 395.1 312.2 396 C 312.4 396.1 312.8 396.6 313 396.8 C 315 395.7 315.4 394 315.4 392.6 L 315.4 391.90000000000003 L 318.59999999999997 391.90000000000003 L 318.59999999999997 394.50000000000006 C 318.59999999999997 395.40000000000003 318.7 395.70000000000005 318.9 395.90000000000003 C 319.2 396.1 319.5 396.20000000000005 319.9 396.20000000000005 L 320.79999999999995 396.20000000000005 C 321.09999999999997 396.20000000000005 321.4 396.20000000000005 321.69999999999993 396.1 C 321.8999999999999 396 322.0999999999999 395.8 322.19999999999993 395.6 C 322.29999999999995 395.3 322.29999999999995 394.6 322.3999999999999 394 C 322.0999999999999 393.9 321.69999999999993 393.7 321.49999999999994 393.5 C 321.49999999999994 394.2 321.49999999999994 394.7 321.3999999999999 394.9 C 321.3999999999999 395.09999999999997 321.2999999999999 395.2 321.19999999999993 395.29999999999995 C 321.0999999999999 395.29999999999995 320.99999999999994 395.4 320.79999999999995 395.4 L 320.19999999999993 395.4 C 319.99999999999994 395.4 319.8999999999999 395.4 319.79999999999995 395.29999999999995 C 319.69999999999993 395.29999999999995 319.69999999999993 395.09999999999997 319.69999999999993 394.79999999999995 L 319.69999999999993 391.09999999999997 L 314.3 390.8 L 314.3 390.8 z M 366.1 391 L 366.1 391 C 366.1 391 366.1 391 366.1 391 C 366.70000000000005 391 367.20000000000005 391.5 367.20000000000005 392 C 367.20000000000005 392.5 366.70000000000005 393 366.20000000000005 393 C 365.70000000000005 393 365.20000000000005 392.5 365.20000000000005 392 C 365.1 391.5 365.5 391 366.1 391 L 366.1 391 z M 395.5 391 C 394.4 392.3 392.9 393.6 391.3 394.6 C 389.6 395.70000000000005 387.3 396.70000000000005 384.6 397.5 L 385.20000000000005 398.7 C 387.30000000000007 398 389.40000000000003 397.09999999999997 391.00000000000006 396.2 L 391.00000000000006 401.8 C 391.00000000000006 402.40000000000003 391.00000000000006 403.1 390.90000000000003 403.40000000000003 L 392.40000000000003 403.40000000000003 C 392.3 403.1 392.3 402.40000000000003 392.3 401.8 L 392.3 395.40000000000003 C 393.8 394.40000000000003 395.3 393.20000000000005 396.40000000000003 392.00000000000006 L 395.5 391 z M 434.2 391.2 C 434.3 391.7 434.3 392.4 434.3 392.8 L 434.3 401.7 C 434.3 402.3 434.3 403 434.2 403.5 L 435.7 403.5 C 435.59999999999997 403 435.59999999999997 402.2 435.59999999999997 401.7 L 435.59999999999997 396.7 C 437.29999999999995 397.2 439.9 398.3 441.59999999999997 399.2 L 442.09999999999997 397.9 C 440.49999999999994 397.09999999999997 437.59999999999997 396 435.59999999999997 395.4 L 435.59999999999997 392.9 C 435.59999999999997 392.4 435.7 391.79999999999995 435.7 391.29999999999995 L 434.2 391.29999999999995 z M 371.6 391.6 L 371.6 392.90000000000003 C 372 392.90000000000003 372.5 392.90000000000003 373 392.90000000000003 L 379 392.90000000000003 C 379.5 392.90000000000003 380 392.90000000000003 380.4 392.90000000000003 L 380.4 391.6 C 380 391.70000000000005 379.5 391.70000000000005 379 391.70000000000005 L 373 391.70000000000005 C 372.5 391.7 372 391.7 371.6 391.6 L 371.6 391.6 z M 411.1 391.9 L 410.20000000000005 392.29999999999995 C 410.70000000000005 392.99999999999994 411.30000000000007 393.9 411.70000000000005 394.69999999999993 L 412.6 394.29999999999995 C 412.2 393.5 411.5 392.4 411.1 391.9 L 411.1 391.9 z M 409.2 392.6 L 408.3 393 C 408.8 393.7 409.3 394.6 409.7 395.5 L 410.59999999999997 395.1 C 410.2 394.3 409.5 393.2 409.2 392.6 L 409.2 392.6 z M 404.8 393.6 C 404.40000000000003 393.6 403.90000000000003 393.90000000000003 403.5 394.40000000000003 C 402.5 395.50000000000006 401.2 397.20000000000005 400.5 397.90000000000003 C 400.1 398.3 399.8 398.6 399.4 398.90000000000003 L 400.5 400.1 C 400.7 399.8 401.1 399.3 401.4 398.90000000000003 C 402.09999999999997 398.00000000000006 403.4 396.40000000000003 404.09999999999997 395.50000000000006 C 404.59999999999997 394.90000000000003 404.9 394.80000000000007 405.49999999999994 395.40000000000003 C 406.09999999999997 396.00000000000006 407.59999999999997 397.50000000000006 408.49999999999994 398.50000000000006 C 409.49999999999994 399.6000000000001 410.79999999999995 401.20000000000005 411.8999999999999 402.50000000000006 L 412.8999999999999 401.40000000000003 C 411.69999999999993 400.20000000000005 410.19999999999993 398.50000000000006 409.19999999999993 397.40000000000003 C 408.29999999999995 396.40000000000003 406.99999999999994 395.1 406.0999999999999 394.20000000000005 C 405.6 393.8 405.2 393.6 404.8 393.6 L 404.8 393.6 z M 309 394.4 L 308.4 395.2 C 309.4 395.59999999999997 310.59999999999997 396.3 311.2 396.9 L 311.8 395.9 C 311.2 395.4 310 394.8 309 394.4 L 309 394.4 z M 380.6 395.1 C 380.40000000000003 395.20000000000005 380.1 395.20000000000005 379.8 395.20000000000005 L 371.8 395.20000000000005 C 371.40000000000003 395.20000000000005 370.90000000000003 395.20000000000005 370.3 395.1 L 370.3 396.40000000000003 C 370.8 396.40000000000003 371.40000000000003 396.40000000000003 371.8 396.40000000000003 L 379.90000000000003 396.40000000000003 C 379.6 397.50000000000006 379.00000000000006 398.8 378.1 399.8 C 376.8 401.2 374.90000000000003 402.2 372.70000000000005 402.6 L 373.70000000000005 403.70000000000005 C 375.70000000000005 403.20000000000005 377.6 402.30000000000007 379.20000000000005 400.50000000000006 C 380.30000000000007 399.30000000000007 381.00000000000006 397.70000000000005 381.40000000000003 396.20000000000005 C 381.50000000000006 396.1 381.50000000000006 395.90000000000003 381.6 395.70000000000005 L 381.6 395.70000000000005 L 380.6 395.1 z M 328 396 L 334.4 396 L 334.4 397.5 L 328 397.5 L 328 396 z M 415.4 396.4 L 415.4 397.9 C 415.9 397.9 416.7 397.79999999999995 417.5 397.79999999999995 L 425.9 397.79999999999995 C 426.59999999999997 397.79999999999995 427.2 397.9 427.5 397.9 L 427.5 396.4 C 427.2 396.4 426.6 396.5 425.9 396.5 L 417.5 396.5 C 416.7 396.4 415.9 396.4 415.4 396.4 L 415.4 396.4 z M 320.4 396.9 L 320.2 396.9 L 313 396.9 L 313 398 L 314.9 398 L 314.2 398.2 C 314.8 399.4 315.5 400.5 316.5 401.4 C 315.1 402.29999999999995 313.5 402.79999999999995 311.9 403.2 C 312.09999999999997 403.4 312.4 403.9 312.5 404.2 C 314.3 403.8 315.9 403.2 317.4 402.2 C 318.59999999999997 403.2 320.2 403.8 321.9 404.2 C 322.09999999999997 403.9 322.4 403.4 322.7 403.2 C 321.09999999999997 402.9 319.59999999999997 402.3 318.4 401.5 C 319.7 400.4 320.7 399 321.4 397.3 L 320.4 396.9 z M 315.1 398 L 319.6 398 C 319.1 399.1 318.3 400 317.3 400.8 C 316.4 400 315.6 399 315.1 398 L 315.1 398 z M 311.6 398.3 C 310.8 400 309.70000000000005 402 308.90000000000003 403.2 L 309.90000000000003 403.9 C 310.70000000000005 402.5 311.70000000000005 400.59999999999997 312.50000000000006 399 L 311.6 398.3 z M 328 398.5 L 334.4 398.5 L 334.4 400.1 L 328 400.1 L 328 398.5 z M 344.9 401.1 L 344.9 402.40000000000003 L 344.29999999999995 404.8 L 345.29999999999995 404.8 L 346.49999999999994 402.40000000000003 L 346.49999999999994 401.1 L 344.9 401.1 z M 327.5 413.9 C 324.9 413.9 322.5 415.79999999999995 322.1 418.4 L 315.3 455.9 C 315.1 456.9 313.8 457.2 313.1 456.29999999999995 L 290.20000000000005 415.49999999999994 C 289.6 414.49999999999994 288.30000000000007 413.99999999999994 287.00000000000006 413.99999999999994 L 267.6000000000001 413.99999999999994 C 265.00000000000006 413.99999999999994 262.6000000000001 415.8999999999999 262.2000000000001 418.49999999999994 L 249.2000000000001 490.5999999999999 C 248.7000000000001 492.9999999999999 250.5000000000001 495.0999999999999 253.0000000000001 495.0999999999999 L 268.10000000000014 495.0999999999999 C 270.70000000000016 495.0999999999999 273.10000000000014 493.0999999999999 273.60000000000014 490.5999999999999 L 280.90000000000015 449.8999999999999 C 281.00000000000017 448.8999999999999 282.40000000000015 448.5999999999999 282.90000000000015 449.49999999999994 L 308.00000000000017 493.3999999999999 C 308.6000000000002 494.3999999999999 309.8000000000002 495.0999999999999 311.20000000000016 495.0999999999999 L 328.00000000000017 495.0999999999999 C 330.50000000000017 495.0999999999999 333.00000000000017 493.0999999999999 333.40000000000015 490.5999999999999 L 346.40000000000015 418.4999999999999 C 346.90000000000015 415.89999999999986 345.3000000000001 413.9999999999999 342.70000000000016 413.9999999999999 L 327.5 413.9 L 327.5 413.9 z M 150 413.9 C 147.4 413.9 145 415.79999999999995 144.6 418.4 L 131.6 490.5 C 131.1 492.9 132.7 495 135.29999999999998 495 L 200.2 495 C 202.79999999999998 495 205.2 493 205.6 490.5 L 207.79999999999998 478.2 C 208.29999999999998 475.8 206.7 473.7 204.1 473.7 L 161.8 473.7 C 160.3 473.7 159.20000000000002 472.4 159.60000000000002 471 L 169.10000000000002 418.3 C 169.60000000000002 415.7 167.8 413.8 165.40000000000003 413.8 L 150 413.9 L 150 413.9 z M 362.5 413.9 C 359.9 413.9 357.5 415.9 357.1 418.5 L 344.1 490.6 C 343.6 493 345.20000000000005 495.1 347.8 495.1 L 363.2 495.1 C 365.7 495.1 368.2 493.1 368.59999999999997 490.6 L 369.7 484.1 C 369.8 483.5 370.2 482.8 370.7 482.3 L 381.7 471.8 L 396.4 493.5 C 397 494.5 398.2 495.2 399.59999999999997 495.2 L 423.4 495.2 C 424.9 495.2 426.2 493.4 425.29999999999995 492.09999999999997 L 400.4 455.09999999999997 C 400.2 454.7 400.29999999999995 454.2 400.5 453.99999999999994 L 439.1 416.79999999999995 C 440.40000000000003 415.69999999999993 439.90000000000003 413.9 438.20000000000005 413.9 L 414.40000000000003 413.9 C 413.00000000000006 413.9 411.6 414.4 410.6 415.4 L 377.8 447 C 376.1 448.1 376.5 446.2 376.5 446.2 L 381.5 418.4 C 382 415.9 380.2 413.79999999999995 377.8 413.79999999999995 L 362.5 413.9 L 362.5 413.9 z" stroke-linecap="round" />
</g>
</svg>